<svg xmlns="http://www.w3.org/2000/svg" viewBox="0 0 512 512" role="img" aria-labelledby="title desc">
  <title id="title">OpenMaple mascot</title>
  <desc id="desc">A friendly maple leaf mascot for the OpenMaple managed agent platform.</desc>
  <defs>
    <linearGradient id="leaf" x1="120" y1="80" x2="390" y2="410" gradientUnits="userSpaceOnUse">
      <stop offset="0" stop-color="#ff6b45"/>
      <stop offset=".55" stop-color="#e5452e"/>
      <stop offset="1" stop-color="#b91f2c"/>
    </linearGradient>
    <linearGradient id="stem" x1="244" y1="290" x2="276" y2="460" gradientUnits="userSpaceOnUse">
      <stop offset="0" stop-color="#8a5132"/>
      <stop offset="1" stop-color="#5b3428"/>
    </linearGradient>
    <filter id="shadow" x="-20%" y="-20%" width="140%" height="150%">
      <feDropShadow dx="0" dy="18" stdDeviation="18" flood-color="#4b1b17" flood-opacity=".22"/>
    </filter>
  </defs>
  <rect width="512" height="512" rx="112" fill="#fff7ed"/>
  <circle cx="390" cy="126" r="42" fill="#d7f5e6"/>
  <circle cx="118" cy="388" r="36" fill="#ffe0c7"/>
  <g filter="url(#shadow)">
    <path d="M257 74l31 94 85-53-31 91 104 4-82 58 65 82-105-23-13 92-55-76-55 76-13-92-105 23 65-82-82-58 104-4-31-91 85 53 31-94z" fill="url(#leaf)" stroke="#8f2023" stroke-width="10" stroke-linejoin="round"/>
    <path d="M256 310c16 42 25 84 19 129-2 15-13 25-27 25h-22c22-45 27-91 20-137z" fill="url(#stem)" stroke="#5b3428" stroke-width="8" stroke-linejoin="round"/>
  </g>
  <g fill="none" stroke="#7d1f22" stroke-width="8" stroke-linecap="round">
    <path d="M256 132v175"/>
    <path d="M256 213l-76-54"/>
    <path d="M257 212l77-54"/>
    <path d="M255 265l-91 46"/>
    <path d="M258 265l93 46"/>
  </g>
  <g>
    <circle cx="214" cy="246" r="15" fill="#2b1717"/>
    <circle cx="299" cy="246" r="15" fill="#2b1717"/>
    <circle cx="209" cy="239" r="5" fill="#fff"/>
    <circle cx="294" cy="239" r="5" fill="#fff"/>
    <path d="M227 286c19 22 46 22 64 0" fill="none" stroke="#2b1717" stroke-width="10" stroke-linecap="round"/>
    <circle cx="188" cy="271" r="16" fill="#ff9b82" opacity=".78"/>
    <circle cx="324" cy="271" r="16" fill="#ff9b82" opacity=".78"/>
  </g>
  <g fill="none" stroke="#2f4638" stroke-width="12" stroke-linecap="round">
    <path d="M151 301c-39 14-62 38-69 70"/>
    <path d="M365 301c39 14 62 38 69 70"/>
  </g>
  <g>
    <path d="M70 385c26-8 50-4 70 12l-3 21c-29 4-53-2-72-18z" fill="#24352c"/>
    <path d="M442 385c-26-8-50-4-70 12l3 21c29 4 53-2 72-18z" fill="#24352c"/>
    <rect x="171" y="433" width="68" height="27" rx="13" fill="#24352c"/>
    <rect x="270" y="433" width="68" height="27" rx="13" fill="#24352c"/>
  </g>
  <g fill="none" stroke="#256b52" stroke-width="8" stroke-linecap="round" stroke-linejoin="round">
    <path d="M362 134h58v38"/>
    <path d="M420 134l-68 68"/>
    <path d="M104 132h42l22 24h48"/>
    <path d="M104 132v68h112"/>
  </g>
</svg>
